<?xml version="1.0" encoding="UTF-8"?>
<svg version="1.1" xmlns="http://www.w3.org/2000/svg" width="600" height="600">
<path d="M0 0 C198 0 396 0 600 0 C600 198 600 396 600 600 C402 600 204 600 0 600 C0 402 0 204 0 0 Z " fill="#FEFEFE" transform="translate(0,0)"/>
<path d="M0 0 C1.33427032 -0.00018127 1.33427032 -0.00018127 2.69549561 -0.00036621 C15.70813343 0.02485378 27.94717068 0.6895045 40.5 4.375 C41.81181719 4.7278091 43.12431062 5.07811436 44.4375 5.42578125 C47.8122229 6.3516851 51.15485472 7.34835695 54.5 8.375 C55.44617188 8.643125 56.39234375 8.91125 57.3671875 9.1875 C62.04771432 10.52082515 66.17088435 12.11205319 70.5 14.375 C71.38300781 14.643125 72.26601563 14.91125 73.17578125 15.1875 C77.22922227 16.63549773 80.733364 18.64328507 84.4375 20.8125 C88.37159149 23.10707477 92.19383776 25.30896204 96.44140625 26.97265625 C97.45074219 27.43542969 98.46007812 27.89820313 99.5 28.375 C99.83 29.365 100.16 30.355 100.5 31.375 C102.15566107 32.06854786 103.82495389 32.72967625 105.5 33.375 C119.18624983 42.656047 132.00094755 54.62884273 142.5625 67.3125 C143.81740234 68.81103516 143.81740234 68.81103516 145.09765625 70.33984375 C147.41421151 73.26661357 149.47383803 76.24184224 151.5 79.375 C152.26278804 80.5327055 153.02581764 81.69025187 153.7890625 82.84765625 C154.56826194 84.04391042 155.34690346 85.24052816 156.125 86.4375 C156.51945312 87.03626953 156.91390625 87.63503906 157.3203125 88.25195312 C159.45181702 91.53922276 161.14981673 94.70225376 162.5 98.375 C163.15035814 99.71636367 163.8162955 101.05032254 164.5 102.375 C165.99726804 105.33100345 167.29472566 108.28648452 168.5 111.375 C169.12393045 112.7296598 169.74907706 114.08375969 170.375 115.4375 C174.555791 124.94070021 177.05986464 134.42412913 179.1875 144.5625 C179.40204834 145.5841626 179.61659668 146.6058252 179.83764648 147.65844727 C182.15841648 159.07885911 182.74070335 170.12320317 182.75 181.75 C182.75067474 182.50921753 182.75134949 183.26843506 182.75204468 184.05065918 C182.73552498 195.76513036 182.03660601 206.92169342 179.5 218.375 C179.10867597 220.27850226 178.71809393 222.18215716 178.328125 224.0859375 C177.90975641 226.05803879 177.487931 228.02941018 177.0625 230 C176.86954346 230.90137695 176.67658691 231.80275391 176.4777832 232.73144531 C174.66261911 240.67288073 171.69333578 247.41382502 167.5 254.375 C166.76864006 256.23333094 166.08073518 258.10935732 165.4375 260 C164.34195711 263.21183257 163.39801188 265.52798218 161.5 268.375 C160.84 268.375 160.18 268.375 159.5 268.375 C159.39300781 268.92542969 159.28601563 269.47585938 159.17578125 270.04296875 C155.29447241 283.43684953 143.0466804 295.64012475 133.90234375 305.76171875 C132.41008583 307.4238504 132.41008583 307.4238504 130.94140625 309.58203125 C130.46574219 310.17371094 129.99007813 310.76539063 129.5 311.375 C128.84 311.375 128.18 311.375 127.5 311.375 C127.17 312.365 126.84 313.355 126.5 314.375 C121.8119898 319.20329979 116.16792997 323.74273502 110.5 327.375 C109.84 327.375 109.18 327.375 108.5 327.375 C108.5 328.035 108.5 328.695 108.5 329.375 C106.4453125 330.890625 106.4453125 330.890625 103.625 332.625 C102.62597656 333.24375 101.62695312 333.8625 100.59765625 334.5 C96.974596 336.69302512 93.34456962 338.87307778 89.69140625 341.015625 C87.47379 342.32987455 87.47379 342.32987455 85.51171875 343.97265625 C83.23543423 345.55942546 81.46157042 346.04411154 78.75 346.5625 C77.95078125 346.72105469 77.1515625 346.87960937 76.328125 347.04296875 C75.72484375 347.15253906 75.1215625 347.26210938 74.5 347.375 C74.5 348.035 74.5 348.695 74.5 349.375 C71.18037851 350.74415264 67.84416193 352.06696704 64.5 353.375 C63.46101562 353.78363281 62.42203125 354.19226563 61.3515625 354.61328125 C22.052351 369.40773966 -21.94511516 367.09227362 -61.375 354.25 C-62.15536621 353.99629639 -62.93573242 353.74259277 -63.73974609 353.48120117 C-69.25494936 351.62005064 -69.25494936 351.62005064 -71.5 349.375 C-72.94660405 348.88089244 -74.40816064 348.43033458 -75.875 348 C-90.47527532 342.85148186 -103.57222389 333.04206607 -115.5 323.375 C-117.12389677 322.16518443 -118.74879682 320.95671358 -120.375 319.75 C-123.91869146 316.98592066 -126.81316338 313.98560502 -129.6875 310.5390625 C-131.72488523 308.10649479 -133.85628435 305.77675728 -136 303.4375 C-141.88463104 296.89234915 -147.11817923 290.43325571 -151.24609375 282.640625 C-153.00138754 279.46906612 -155.02269013 276.50404684 -157.0703125 273.515625 C-159.85499781 269.34620546 -162.24680804 265.03954549 -164.5 260.5625 C-164.995 259.58667969 -165.49 258.61085938 -166 257.60546875 C-171.99040965 244.70424796 -175.71138672 230.52866028 -178.8125 216.6875 C-178.97161865 215.98254395 -179.1307373 215.27758789 -179.29467773 214.55126953 C-181.54589275 204.08194269 -181.74016128 193.66835941 -181.75 183 C-181.75151062 181.86416473 -181.75151062 181.86416473 -181.75305176 180.7053833 C-181.74253982 169.01209016 -181.13464883 157.80759348 -178.5 146.375 C-178.35014648 145.69421387 -178.20029297 145.01342773 -178.04589844 144.31201172 C-175.78543897 134.15914121 -172.70785391 124.26150059 -169.5 114.375 C-168.84 114.375 -168.18 114.375 -167.5 114.375 C-167.438125 113.59125 -167.37625 112.8075 -167.3125 112 C-166.40145272 107.93532754 -164.86357851 104.79751751 -162.93359375 101.12890625 C-161.98441069 99.30554369 -161.07959379 97.45833447 -160.22265625 95.58984375 C-156.07336836 86.65384113 -150.49661283 79.12693308 -144.5 71.375 C-143.80261719 70.45074219 -143.10523438 69.52648437 -142.38671875 68.57421875 C-130.25992529 53.05663255 -115.71288272 40.43364327 -99.5 29.375 C-98.49912354 28.68639893 -98.49912354 28.68639893 -97.47802734 27.98388672 C-78.64011437 15.11767429 -78.64011437 15.11767429 -67.5 14.375 C-67.5 13.715 -67.5 13.055 -67.5 12.375 C-55.64222148 8.170114 -43.86181264 4.73821091 -31.5 2.375 C-30.66758789 2.19694824 -29.83517578 2.01889648 -28.97753906 1.83544922 C-19.35729699 -0.04326821 -9.76381223 -0.02031353 0 0 Z " fill="#FCFCFC" transform="translate(299.5,117.625)"/>
<path d="M0 0 C1.33427032 -0.00018127 1.33427032 -0.00018127 2.69549561 -0.00036621 C15.70813343 0.02485378 27.94717068 0.6895045 40.5 4.375 C41.81181719 4.7278091 43.12431062 5.07811436 44.4375 5.42578125 C47.8122229 6.3516851 51.15485472 7.34835695 54.5 8.375 C55.44617188 8.643125 56.39234375 8.91125 57.3671875 9.1875 C62.04771432 10.52082515 66.17088435 12.11205319 70.5 14.375 C71.38300781 14.643125 72.26601563 14.91125 73.17578125 15.1875 C77.22922227 16.63549773 80.733364 18.64328507 84.4375 20.8125 C88.37159149 23.10707477 92.19383776 25.30896204 96.44140625 26.97265625 C97.45074219 27.43542969 98.46007812 27.89820313 99.5 28.375 C99.83 29.365 100.16 30.355 100.5 31.375 C102.15566107 32.06854786 103.82495389 32.72967625 105.5 33.375 C119.18624983 42.656047 132.00094755 54.62884273 142.5625 67.3125 C143.81740234 68.81103516 143.81740234 68.81103516 145.09765625 70.33984375 C147.41421151 73.26661357 149.47383803 76.24184224 151.5 79.375 C152.26278804 80.5327055 153.02581764 81.69025187 153.7890625 82.84765625 C154.56826194 84.04391042 155.34690346 85.24052816 156.125 86.4375 C156.51945312 87.03626953 156.91390625 87.63503906 157.3203125 88.25195312 C159.45181702 91.53922276 161.14981673 94.70225376 162.5 98.375 C163.15035814 99.71636367 163.8162955 101.05032254 164.5 102.375 C165.99726804 105.33100345 167.29472566 108.28648452 168.5 111.375 C169.12393045 112.7296598 169.74907706 114.08375969 170.375 115.4375 C174.555791 124.94070021 177.05986464 134.42412913 179.1875 144.5625 C179.40204834 145.5841626 179.61659668 146.6058252 179.83764648 147.65844727 C182.15841648 159.07885911 182.74070335 170.12320317 182.75 181.75 C182.75067474 182.50921753 182.75134949 183.26843506 182.75204468 184.05065918 C182.73552498 195.76513036 182.03660601 206.92169342 179.5 218.375 C179.10867597 220.27850226 178.71809393 222.18215716 178.328125 224.0859375 C177.90975641 226.05803879 177.487931 228.02941018 177.0625 230 C176.86954346 230.90137695 176.67658691 231.80275391 176.4777832 232.73144531 C174.66261911 240.67288073 171.69333578 247.41382502 167.5 254.375 C166.76864006 256.23333094 166.08073518 258.10935732 165.4375 260 C164.34195711 263.21183257 163.39801188 265.52798218 161.5 268.375 C160.84 268.375 160.18 268.375 159.5 268.375 C159.39300781 268.92542969 159.28601563 269.47585938 159.17578125 270.04296875 C155.29447241 283.43684953 143.0466804 295.64012475 133.90234375 305.76171875 C132.41008583 307.4238504 132.41008583 307.4238504 130.94140625 309.58203125 C130.46574219 310.17371094 129.99007813 310.76539063 129.5 311.375 C128.84 311.375 128.18 311.375 127.5 311.375 C127.17 312.365 126.84 313.355 126.5 314.375 C121.8119898 319.20329979 116.16792997 323.74273502 110.5 327.375 C109.84 327.375 109.18 327.375 108.5 327.375 C108.5 328.035 108.5 328.695 108.5 329.375 C106.4453125 330.890625 106.4453125 330.890625 103.625 332.625 C102.62597656 333.24375 101.62695312 333.8625 100.59765625 334.5 C96.974596 336.69302512 93.34456962 338.87307778 89.69140625 341.015625 C87.47379 342.32987455 87.47379 342.32987455 85.51171875 343.97265625 C83.23543423 345.55942546 81.46157042 346.04411154 78.75 346.5625 C77.95078125 346.72105469 77.1515625 346.87960937 76.328125 347.04296875 C75.72484375 347.15253906 75.1215625 347.26210938 74.5 347.375 C74.5 348.035 74.5 348.695 74.5 349.375 C71.18037851 350.74415264 67.84416193 352.06696704 64.5 353.375 C63.46101562 353.78363281 62.42203125 354.19226563 61.3515625 354.61328125 C22.052351 369.40773966 -21.94511516 367.09227362 -61.375 354.25 C-62.15536621 353.99629639 -62.93573242 353.74259277 -63.73974609 353.48120117 C-69.25494936 351.62005064 -69.25494936 351.62005064 -71.5 349.375 C-72.94660405 348.88089244 -74.40816064 348.43033458 -75.875 348 C-90.47527532 342.85148186 -103.57222389 333.04206607 -115.5 323.375 C-117.12389677 322.16518443 -118.74879682 320.95671358 -120.375 319.75 C-123.91869146 316.98592066 -126.81316338 313.98560502 -129.6875 310.5390625 C-131.72488523 308.10649479 -133.85628435 305.77675728 -136 303.4375 C-141.88463104 296.89234915 -147.11817923 290.43325571 -151.24609375 282.640625 C-153.00138754 279.46906612 -155.02269013 276.50404684 -157.0703125 273.515625 C-159.85499781 269.34620546 -162.24680804 265.03954549 -164.5 260.5625 C-164.995 259.58667969 -165.49 258.61085938 -166 257.60546875 C-171.99040965 244.70424796 -175.71138672 230.52866028 -178.8125 216.6875 C-178.97161865 215.98254395 -179.1307373 215.27758789 -179.29467773 214.55126953 C-181.54589275 204.08194269 -181.74016128 193.66835941 -181.75 183 C-181.75151062 181.86416473 -181.75151062 181.86416473 -181.75305176 180.7053833 C-181.74253982 169.01209016 -181.13464883 157.80759348 -178.5 146.375 C-178.35014648 145.69421387 -178.20029297 145.01342773 -178.04589844 144.31201172 C-175.78543897 134.15914121 -172.70785391 124.26150059 -169.5 114.375 C-168.84 114.375 -168.18 114.375 -167.5 114.375 C-167.438125 113.59125 -167.37625 112.8075 -167.3125 112 C-166.40145272 107.93532754 -164.86357851 104.79751751 -162.93359375 101.12890625 C-161.98441069 99.30554369 -161.07959379 97.45833447 -160.22265625 95.58984375 C-156.07336836 86.65384113 -150.49661283 79.12693308 -144.5 71.375 C-143.80261719 70.45074219 -143.10523438 69.52648437 -142.38671875 68.57421875 C-130.25992529 53.05663255 -115.71288272 40.43364327 -99.5 29.375 C-98.49912354 28.68639893 -98.49912354 28.68639893 -97.47802734 27.98388672 C-78.64011437 15.11767429 -78.64011437 15.11767429 -67.5 14.375 C-67.5 13.715 -67.5 13.055 -67.5 12.375 C-55.64222148 8.170114 -43.86181264 4.73821091 -31.5 2.375 C-30.66758789 2.19694824 -29.83517578 2.01889648 -28.97753906 1.83544922 C-19.35729699 -0.04326821 -9.76381223 -0.02031353 0 0 Z M-39.5 31.375 C-40.33273437 31.61589355 -41.16546875 31.85678711 -42.0234375 32.10498047 C-50.04504754 34.43916188 -57.86332123 36.97531606 -65.5 40.375 C-65.5 41.035 -65.5 41.695 -65.5 42.375 C-66.5725 42.643125 -67.645 42.91125 -68.75 43.1875 C-72.16846746 44.2700147 -73.78618149 45.2039452 -76.5 47.375 C-77.25667969 47.66117188 -78.01335937 47.94734375 -78.79296875 48.2421875 C-87.56296073 51.91216971 -95.16820191 59.419478 -102.5 65.375 C-103.42039063 66.07109375 -104.34078125 66.7671875 -105.2890625 67.484375 C-106.01867187 68.10828125 -106.74828125 68.7321875 -107.5 69.375 C-107.5 70.035 -107.5 70.695 -107.5 71.375 C-108.49 71.705 -109.48 72.035 -110.5 72.375 C-110.5 73.035 -110.5 73.695 -110.5 74.375 C-111.04140625 74.56578125 -111.5828125 74.7565625 -112.140625 74.953125 C-115.61399099 77.04634557 -117.75911459 79.96391766 -120.25 83.125 C-121.04180664 84.11959229 -121.04180664 84.11959229 -121.84960938 85.13427734 C-126.09334057 90.58884171 -129.54229897 96.25722043 -132.78125 102.3515625 C-134.5 105.375 -134.5 105.375 -136.59375 107.9609375 C-138.5253231 110.40706901 -139.45101177 112.46267741 -140.5 115.375 C-141.24856517 116.89654008 -141.99867569 118.41732047 -142.75 119.9375 C-152.18337781 140.59575764 -154.67575183 162.46325558 -154.6875 184.9375 C-154.69974609 186.17435547 -154.71199219 187.41121094 -154.72460938 188.68554688 C-154.73648044 196.16827409 -154.11775695 203.07642469 -152.5 210.375 C-152.31767822 211.27275146 -152.13535645 212.17050293 -151.94750977 213.09545898 C-149.73235507 223.93592652 -147.42461506 234.39985643 -142.5 244.375 C-141.96375 245.51066406 -141.4275 246.64632812 -140.875 247.81640625 C-134.47521283 261.18018901 -126.37978173 272.83532691 -116.875 284.125 C-116.17358887 284.95813721 -116.17358887 284.95813721 -115.45800781 285.80810547 C-111.66761576 290.27239099 -111.66761576 290.27239099 -107.5 294.375 C-106.84 294.375 -106.18 294.375 -105.5 294.375 C-105.24605469 294.96023438 -104.99210937 295.54546875 -104.73046875 296.1484375 C-98.42492718 307.5584651 -79.24437075 317.88726554 -67.375 322.5625 C-66.16457031 323.04783203 -66.16457031 323.04783203 -64.9296875 323.54296875 C-62.46717432 324.38624095 -60.06086949 324.92388598 -57.5 325.375 C-57.5 326.035 -57.5 326.695 -57.5 327.375 C-50.1450086 329.81908524 -43.2498635 331.84958553 -35.5 332.375 C-35.5 333.035 -35.5 333.695 -35.5 334.375 C-24.0554571 336.9350277 -13.15234685 337.90287827 -1.4375 337.8125 C-0.23450256 337.80943344 -0.23450256 337.80943344 0.99279785 337.80630493 C17.75250842 337.73699661 36.28470657 337.06254002 51.55957031 329.33276367 C53.5 328.375 53.5 328.375 56.6875 327.5625 C60.6336403 326.33337433 63.76043961 324.65778509 67.3125 322.59375 C69.5 321.375 69.5 321.375 73 319.9375 C76.75484077 318.2612318 79.89998717 316.1941126 83.27734375 313.87109375 C86.26344078 311.86111983 89.35133887 310.11681254 92.5 308.375 C92.5 307.715 92.5 307.055 92.5 306.375 C94.5 305.375 96.5 304.375 98.5 303.375 C98.5 302.715 98.5 302.055 98.5 301.375 C100.5 300.375 102.5 299.375 104.5 298.375 C104.5 297.715 104.5 297.055 104.5 296.375 C105.16 296.375 105.82 296.375 106.5 296.375 C106.5 295.715 106.5 295.055 106.5 294.375 C107.06847656 294.14296875 107.63695312 293.9109375 108.22265625 293.671875 C111.06613423 292.05260452 112.78579098 290.08622696 114.9375 287.625 C115.71867187 286.73296875 116.49984375 285.8409375 117.3046875 284.921875 C118.02914063 284.08140625 118.75359375 283.2409375 119.5 282.375 C120.33917969 281.42367187 120.33917969 281.42367187 121.1953125 280.453125 C123.73889453 277.79790773 123.73889453 277.79790773 124.5 274.375 C125.49 274.045 126.48 273.715 127.5 273.375 C128.98207846 271.13091874 128.98207846 271.13091874 130.3125 268.375 C132.24206525 264.66908559 134.23401337 261.17607198 136.625 257.75 C142.51261814 249.05584885 145.44982449 239.05070364 148.84521484 229.19848633 C149.35922678 227.76703399 149.94093186 226.35986956 150.546875 224.96484375 C161.61004133 194.9038631 157.25854023 155.46936013 146.20410156 126.24707031 C145.59258297 124.62116026 145.02291878 122.97962711 144.4609375 121.3359375 C139.38863225 107.59037746 127.6961566 84.45013193 114.25390625 77.15625 C113.38572266 76.76953125 113.38572266 76.76953125 112.5 76.375 C111.5 74.5625 111.5 74.5625 110.5 72.375 C107.90949131 68.8331098 105.34658297 66.308886 101.75 63.8125 C98.35334091 61.43077889 95.02770853 59.02553864 91.78515625 56.4375 C83.39258492 49.79429542 75.33233683 45.03221262 65.37548828 41.13964844 C62.43384857 39.94032332 59.60320635 38.51929631 56.75 37.125 C51.6114908 34.72490129 46.59362556 33.1893057 41.06640625 31.95703125 C38.5 31.375 38.5 31.375 35.5 30.3125 C24.2701218 26.80316306 12.64011057 26.97337498 1 27 C-0.33676285 27.00081573 -0.33676285 27.00081573 -1.70053101 27.00164795 C-14.70320125 27.03819653 -26.98063773 27.57727381 -39.5 31.375 Z " fill="#060606" transform="translate(299.5,117.625)"/>
<path d="M0 0 C4.80167446 0.74738217 5.87590709 2.52051053 8.65625 6.3203125 C9.19507813 7.1040625 9.73390625 7.8878125 10.2890625 8.6953125 C11.38439819 10.21948244 12.4807363 11.74293254 13.578125 13.265625 C14.09536133 14.00071289 14.61259766 14.73580078 15.14550781 15.49316406 C16.53865286 17.39877147 18.00534753 19.16556788 19.5625 20.9375 C21.6640625 23.5703125 21.6640625 23.5703125 21.6640625 26.5703125 C22.24414062 26.80492187 22.82421875 27.03953125 23.421875 27.28125 C26.18281282 28.86854875 27.59737208 30.67657353 29.5390625 33.1953125 C30.24160156 34.10023438 30.94414062 35.00515625 31.66796875 35.9375 C33.7627036 38.70041837 35.84544951 41.47139692 37.9140625 44.25390625 C43.59113213 51.76842029 49.45576399 59.14158186 55.4765625 66.3828125 C58.7084372 70.29568936 61.59606699 74.28989929 64.27734375 78.59765625 C65.92209021 81.05743964 65.92209021 81.05743964 69.6640625 84.5703125 C69.6640625 70.7103125 69.6640625 56.8503125 69.6640625 42.5703125 C77.9140625 42.5703125 86.1640625 42.5703125 94.6640625 42.5703125 C94.82245759 53.38434534 94.95077396 64.19760291 95.0267477 75.0125351 C95.06321879 80.03483818 95.11265617 85.05630384 95.19213867 90.078125 C95.26841852 94.92816854 95.31009883 99.7774087 95.3282032 104.62800598 C95.34109808 106.4748041 95.36627993 108.32156017 95.4041729 110.16801453 C95.72497783 126.4538007 95.72497783 126.4538007 91.30883789 131.64257812 C88.15003032 134.47823289 85.50755702 136.44762239 81.2265625 137.0703125 C80.0509375 136.9053125 78.8753125 136.7403125 77.6640625 136.5703125 C76.677832 135.21794921 75.70671951 133.85091225 74.83129883 132.42431641 C72.53881339 128.78299985 69.8373386 125.42419951 67.2265625 122.0078125 C66.66646484 121.26595703 66.10636719 120.52410156 65.52929688 119.75976562 C62.45871435 115.73612014 59.27119115 112.13283002 55.6640625 108.5703125 C54.67342004 106.84467724 53.68452959 105.11755992 52.73828125 103.3671875 C51.25230229 100.88154997 49.39951046 98.85092938 47.48046875 96.69140625 C45.21027943 94.04041098 43.0926715 91.28170889 40.9765625 88.5078125 C37.36072112 83.77543563 33.72013901 79.06468169 30.0390625 74.3828125 C29.34490234 73.49940186 29.34490234 73.49940186 28.63671875 72.59814453 C25.94053089 69.17333488 23.21711652 65.77230396 20.4765625 62.3828125 C16.91032119 57.95626144 13.60008792 53.36988646 10.328125 48.72265625 C8.84167707 46.47825871 8.84167707 46.47825871 6.6640625 45.5703125 C6.6640625 75.6003125 6.6640625 105.6303125 6.6640625 136.5703125 C-0.3359375 136.5703125 -0.3359375 136.5703125 -3.3359375 135.5703125 C-3.3359375 134.9103125 -3.3359375 134.2503125 -3.3359375 133.5703125 C-4.46128906 133.43302734 -4.46128906 133.43302734 -5.609375 133.29296875 C-8.80071044 132.4471277 -9.83477614 131.48833409 -11.9609375 129.0078125 C-12.53070313 128.36714844 -13.10046875 127.72648437 -13.6875 127.06640625 C-18.05194724 120.45768164 -18.77886694 114.33013723 -18.73999023 106.62524414 C-18.74685349 105.66317551 -18.75371674 104.70110687 -18.76078796 103.70988464 C-18.77899335 100.54992649 -18.77522739 97.39046778 -18.76953125 94.23046875 C-18.77409597 92.02143697 -18.7794024 89.81240661 -18.78541565 87.6033783 C-18.79433442 82.98105081 -18.79193749 78.35889621 -18.78198242 73.73657227 C-18.77049317 67.82753628 -18.79071037 61.91909793 -18.81989956 56.01014042 C-18.83828827 51.45035543 -18.83796375 46.89071297 -18.83226204 42.33090019 C-18.83210916 40.15290933 -18.83812576 37.97490861 -18.85055351 35.7969532 C-18.8655123 32.74585109 -18.85475016 29.69584437 -18.83764648 26.64477539 C-18.84731445 25.75462738 -18.85698242 24.86447937 -18.86694336 23.94735718 C-18.78525634 16.95142617 -17.07079326 10.88092737 -12.5546875 5.4140625 C-11.9875 4.970625 -11.4203125 4.5271875 -10.8359375 4.0703125 C-10.26875 3.60625 -9.7015625 3.1421875 -9.1171875 2.6640625 C-6.15171013 0.84315534 -3.41736393 0.58423318 0 0 Z " fill="#040404" transform="translate(216.3359375,231.4296875)"/>
<path d="M0 0 C0.79625793 -0.00861557 1.59251587 -0.01723114 2.41290283 -0.02610779 C5.02113204 -0.04864088 7.62827562 -0.0420525 10.23657227 -0.03295898 C12.06446142 -0.03820032 13.89234787 -0.04447866 15.7202301 -0.05174255 C19.54229503 -0.06212349 23.36398711 -0.05761877 27.18603516 -0.04296875 C32.06620157 -0.02578721 36.94518985 -0.04928029 41.82522488 -0.08445835 C45.59755648 -0.10649664 49.36960899 -0.10497532 53.14198494 -0.09669304 C54.9403926 -0.09587698 56.73882147 -0.1026738 58.5371685 -0.11746407 C76.35439842 -0.24155002 76.35439842 -0.24155002 83.61547852 5.53344727 C84.47906227 6.12076881 84.47906227 6.12076881 85.36009216 6.71995544 C89.42434578 9.68264719 91.14286235 12.78835072 92.61547852 17.53344727 C92.61547852 19.84344727 92.61547852 22.15344727 92.61547852 24.53344727 C54.00547852 24.53344727 15.39547852 24.53344727 -24.38452148 24.53344727 C-24.38452148 21.89344727 -24.38452148 19.25344727 -24.38452148 16.53344727 C-23.72452148 16.53344727 -23.06452148 16.53344727 -22.38452148 16.53344727 C-22.32264648 15.66719727 -22.26077148 14.80094727 -22.19702148 13.90844727 C-21.04013522 9.10291969 -18.72162899 6.05879827 -14.64242458 3.39643955 C-9.62772175 0.75673621 -5.62982378 -0.05010783 0 0 Z " fill="#080808" transform="translate(309.384521484375,230.466552734375)"/>
<path d="M0 0 C8.58 0 17.16 0 26 0 C26.1132278 10.1448622 26.20484633 20.28930068 26.25906086 30.43465328 C26.28508894 35.14620998 26.3203619 39.85730974 26.37719727 44.56860352 C26.43176065 49.1203564 26.46147154 53.67167143 26.47438622 58.22372627 C26.48358265 59.95520477 26.50154105 61.6866609 26.52865028 63.41795158 C26.79869925 81.38859079 26.79869925 81.38859079 21 88 C14.19175643 94.11200547 9.41024243 95 0 95 C0 63.65 0 32.3 0 0 Z " fill="#ffffffff" transform="translate(333,273)"/>
<path d="M0 0 C1.125 3.75 1.125 3.75 0 6 C-1.72611151 7.51413291 -3.51358949 8.93568097 -5.30859375 10.3671875 C-7.12501102 12.12068039 -7.91708937 13.74472091 -9 16 C-10.9375 17.0625 -10.9375 17.0625 -13 18 C-14.70921589 19.5412312 -14.70921589 19.5412312 -16 21 C-16.66 20.34 -17.32 19.68 -18 19 C-17.195625 18.38125 -16.39125 17.7625 -15.5625 17.125 C-12.96125481 15.25835959 -12.96125481 15.25835959 -12 13 C-11.34 13 -10.68 13 -10 13 C-9.75507813 12.43796875 -9.51015625 11.8759375 -9.2578125 11.296875 C-7.77073461 8.58134146 -5.95937218 6.53608562 -3.875 4.25 C-3.15054687 3.45078125 -2.42609375 2.6515625 -1.6796875 1.828125 C-1.12539063 1.22484375 -0.57109375 0.6215625 0 0 Z " fill="#CFCFCF" transform="translate(439,416)"/>
<path d="M0 0 C0.66 0 1.32 0 2 0 C0.59155282 3.21524305 -1.10344786 5.32183868 -3.625 7.75 C-4.57246094 8.67039063 -4.57246094 8.67039063 -5.5390625 9.609375 C-6.02117187 10.06828125 -6.50328125 10.5271875 -7 11 C-7.99 10.67 -8.98 10.34 -10 10 C-8.625 8.5 -8.625 8.5 -7 7 C-6.34 7 -5.68 7 -5 7 C-4.67 6.01 -4.34 5.02 -4 4 C-3.34 4 -2.68 4 -2 4 C-1.34 2.68 -0.68 1.36 0 0 Z " fill="#ffffffff" transform="translate(194,185)"/>
<path d="M0 0 C0 3.52809907 -0.64276511 4.46815512 -3 7 C-3.99 7 -4.98 7 -6 7 C-8.00309329 7.31421071 -10.00371336 7.6451046 -12 8 C-9.54764546 5.54764546 -6.98597064 4.46398618 -3.875 3 C-1.83448849 2.02859623 -1.83448849 2.02859623 0 0 Z " fill="#BEBEBE" transform="translate(354,360)"/>
<path d="M0 0 C0 3 0 3 -1 6 C-4.44444444 9 -4.44444444 9 -7 9 C-7 9.66 -7 10.32 -7 11 C-7.66 10.67 -8.32 10.34 -9 10 C-7.8758824 8.70756532 -6.75067408 7.41607925 -5.625 6.125 C-4.99851563 5.40570313 -4.37203125 4.68640625 -3.7265625 3.9453125 C-2.52573166 2.5923402 -1.2791655 1.2791655 0 0 Z " fill="#323232" transform="translate(169,173)"/>
<path d="M0 0 C0.66 0.33 1.32 0.66 2 1 C0.625 3.5 0.625 3.5 -1 6 C-1.66 6 -2.32 6 -3 6 C-3.66 6.66 -4.32 7.32 -5 8 C-5.66 8 -6.32 8 -7 8 C-5.50902342 4.2047869 -3.24299151 2.38957269 0 0 Z " fill="#313131" transform="translate(296,233)"/>
<path d="M0 0 C2 2 2 2 2 5 C-0.66666667 5.66666667 -3.33333333 6.33333333 -6 7 C-4.02 4.69 -2.04 2.38 0 0 Z " fill="#D5D5D5" transform="translate(309,360)"/>
<path d="M0 0 C0.33 0.66 0.66 1.32 1 2 C1.66 2 2.32 2 3 2 C1.73762269 4.52475462 0.2095347 5.46605403 -2.0625 7.125 C-2.79597656 7.66382813 -3.52945313 8.20265625 -4.28515625 8.7578125 C-4.85105469 9.16773438 -5.41695312 9.57765625 -6 10 C-4.28564986 6.44774296 -2.22257977 3.25978366 0 0 Z " fill="#323232" transform="translate(157,186)"/>
<path d="M0 0 C0.66 0.33 1.32 0.66 2 1 C-3 7.57142857 -3 7.57142857 -8 9 C-6.4169423 4.7257442 -3.49431596 2.73468206 0 0 Z " fill="#353535" transform="translate(209,233)"/>
<path d="M0 0 C2.64 0.33 5.28 0.66 8 1 C8 1.33 8 1.66 8 2 C6.35 2 4.7 2 3 2 C3 2.66 3 3.32 3 4 C1.35 3.67 -0.3 3.34 -2 3 C-1.34 2.01 -0.68 1.02 0 0 Z " fill="#3A3A3A" transform="translate(256,449)"/>
<path d="M0 0 C0.66 0.33 1.32 0.66 2 1 C-2.296875 5.00390625 -2.296875 5.00390625 -4 6 C-6.203125 5.65234375 -6.203125 5.65234375 -8 5 C-6.71475739 4.13619741 -5.42157581 3.28419631 -4.125 2.4375 C-3.04605469 1.72400391 -3.04605469 1.72400391 -1.9453125 0.99609375 C-1.30335938 0.66738281 -0.66140625 0.33867187 0 0 Z " fill="#444444" transform="translate(385,429)"/>
<path d="M0 0 C0.8125 1.625 0.8125 1.625 1 4 C-0.46818136 6.24609835 -2.15852858 8.02378677 -4 10 C-4 5.75354935 -2.18249194 3.61475228 0 0 Z " fill="#454545" transform="translate(434,377)"/>
<path d="M0 0 C0.66 0.33 1.32 0.66 2 1 C0.68 1.33 -0.64 1.66 -2 2 C-2.33 3.65 -2.66 5.3 -3 7 C-3.66 7 -4.32 7 -5 7 C-5 6.34 -5 5.68 -5 5 C-5.66 4.67 -6.32 4.34 -7 4 C-1.7265625 0.77734375 -1.7265625 0.77734375 0 0 Z " fill="#4D4D4D" transform="translate(217,137)"/>
<path d="M0 0 C0.66 0.33 1.32 0.66 2 1 C-0.75 4.875 -0.75 4.875 -3 6 C-3 5.34 -3 4.68 -3 4 C-4.32 4.33 -5.64 4.66 -7 5 C-4.88437775 2.67281553 -2.94982021 1.14186589 0 0 Z " fill="#424242" transform="translate(369,438)"/>
</svg>
